<svg version="1.2" xmlns="http://www.w3.org/2000/svg" viewBox="0 0 533 464" width="533" height="464">
	<title>SC-green-svg</title>
	<style>
		.s0 { fill: #e2aa42 } 
		.s1 { fill: none;stroke: #1aa55b;stroke-linecap: round;stroke-linejoin: round;stroke-width: 29.7 } 
	</style>
	<path id="Shape 1" class="s0" d="m391.1 424.1c-4.7 8.3-13.5 13.4-23.1 13.5l-212.5 0.5c-9.6 0-18.4-5.1-23.2-13.4l-106.7-183.7c-4.8-8.3-4.8-18.5 0-26.8l105.8-184.3c4.7-8.3 13.5-13.4 23.1-13.4l212.5-0.5c9.6 0 18.4 5.1 23.2 13.3l106.7 183.8c4.8 8.3 4.8 18.5 0.1 26.8z"/>
	<path id="Layer" fill-rule="evenodd" class="s1" d="m318.9 125.1h-104.9c-6.5 0-12.6 3.5-15.7 9.2l-31.1 53.7c-6.7 12 1.9 26.7 15.5 26.7h35.5"/>
	<path id="Layer" fill-rule="evenodd" class="s1" d="m299.7 332.5h12.3c6.2 0 12.1-3.4 15.1-8.8l31.6-55.7c6.6-11.7-1.8-26.1-15.2-26.1h-43.5"/>
	<path id="Layer" class="s1" d="m208.2 332.5h10.5"/>
	<path id="Layer" fill-rule="evenodd" class="s1" d="m378.1 344.1l49.5-91.4c8.8-15.7 8.7-34.9-0.5-50.5l-61.2-104.5c-9.1-15.5-25.7-25.1-43.8-25.1h-119.5c-18.1 0-34.8 9.7-44 25.3l-60.7 105.2c-9.1 15.8-9.1 35.3 0.2 51.1l61 104.1c9.4 16 26.5 25.8 45.1 25.8h14.7"/>
	<path id="Layer" fill-rule="evenodd" class="s1" d="m355.1 189.9h-73c-13 0-23.6 10.6-23.6 23.6v137.6c0 18.3 14.8 33.1 33.1 33.1h63.6"/>
</svg>