<?xml version="1.0" encoding="utf-8"?>
<!-- Generator: Adobe Illustrator 24.3.0, SVG Export Plug-In . SVG Version: 6.00 Build 0)  -->
<svg version="1.1" id="Layer_1" xmlns="http://www.w3.org/2000/svg" xmlns:xlink="http://www.w3.org/1999/xlink" x="0px" y="0px"
	 viewBox="0 0 395 342" style="enable-background:new 0 0 395 342;" xml:space="preserve">
<style type="text/css">
	.st0{fill:none;stroke:#1AA55B;stroke-width:29.7;stroke-linecap:round;stroke-linejoin:round;stroke-miterlimit:10;}
</style>
<path class="st0" d="M253.9,68.1H149c-6.5,0-12.6,3.5-15.7,9.2L102.2,131c-6.7,12,1.9,26.7,15.5,26.7h35.5"/>
<path class="st0" d="M234.7,275.5H247c6.2,0,12.1-3.4,15.1-8.8l31.6-55.7c6.6-11.7-1.8-26.1-15.2-26.1H235"/>
<line class="st0" x1="143.2" y1="275.5" x2="153.7" y2="275.5"/>
<path class="st0" d="M313.1,287.1l49.5-91.4c8.8-15.7,8.7-34.9-0.5-50.5L300.9,40.7c-9.1-15.5-25.7-25.1-43.8-25.1H137.6
	c-18.1,0-34.8,9.7-44,25.3L32.9,146.1c-9.1,15.8-9.1,35.3,0.2,51.1l61,104.1c9.4,16,26.5,25.8,45.1,25.8h14.7"/>
<path class="st0" d="M290.1,132.9h-73c-13,0-23.6,10.6-23.6,23.6v137.6c0,18.3,14.8,33.1,33.1,33.1h63.6"/>
</svg>
